<svg width="960" height="720" viewBox="0 0 960 720" fill="none" xmlns="http://www.w3.org/2000/svg" role="img" aria-labelledby="title desc">
  <title id="title">Dashboard abstracto de ingeniería de software</title>
  <desc id="desc">Composición visual con paneles de código, métricas, arquitectura y flujos de despliegue.</desc>
  <rect width="960" height="720" rx="20" fill="#14202B"/>
  <rect x="34" y="34" width="892" height="652" rx="16" fill="#F8F4EC"/>
  <rect x="64" y="64" width="832" height="72" rx="12" fill="#17212B"/>
  <circle cx="98" cy="100" r="9" fill="#D9583F"/>
  <circle cx="128" cy="100" r="9" fill="#C8912F"/>
  <circle cx="158" cy="100" r="9" fill="#0F766E"/>
  <rect x="664" y="88" width="178" height="24" rx="6" fill="#EEF4F2" opacity=".26"/>
  <rect x="64" y="166" width="342" height="220" rx="14" fill="#FFFFFF" stroke="#D9E0E4"/>
  <rect x="92" y="194" width="108" height="16" rx="5" fill="#2C5F9E"/>
  <rect x="92" y="234" width="250" height="12" rx="6" fill="#D9E0E4"/>
  <rect x="92" y="264" width="198" height="12" rx="6" fill="#D9E0E4"/>
  <rect x="92" y="294" width="276" height="12" rx="6" fill="#D9E0E4"/>
  <rect x="92" y="334" width="122" height="22" rx="7" fill="#0F766E"/>
  <rect x="436" y="166" width="460" height="220" rx="14" fill="#17212B"/>
  <rect x="468" y="198" width="154" height="12" rx="6" fill="#53C7B9"/>
  <rect x="468" y="230" width="314" height="12" rx="6" fill="#EEF4F2" opacity=".28"/>
  <rect x="468" y="260" width="244" height="12" rx="6" fill="#EEF4F2" opacity=".28"/>
  <rect x="468" y="290" width="338" height="12" rx="6" fill="#EEF4F2" opacity=".28"/>
  <rect x="468" y="320" width="190" height="12" rx="6" fill="#D9583F"/>
  <rect x="64" y="416" width="252" height="210" rx="14" fill="#FFFFFF" stroke="#D9E0E4"/>
  <rect x="92" y="444" width="76" height="76" rx="16" fill="#F2E3D0"/>
  <path d="M111 483h38M130 464v38" stroke="#C8912F" stroke-width="10" stroke-linecap="round"/>
  <rect x="92" y="548" width="168" height="14" rx="7" fill="#17212B"/>
  <rect x="92" y="580" width="126" height="12" rx="6" fill="#D9E0E4"/>
  <rect x="346" y="416" width="252" height="210" rx="14" fill="#FFFFFF" stroke="#D9E0E4"/>
  <path d="M392 555c34-86 80-86 114 0s80 86 114 0" stroke="#0F766E" stroke-width="14" stroke-linecap="round"/>
  <rect x="374" y="444" width="178" height="14" rx="7" fill="#17212B"/>
  <rect x="374" y="474" width="112" height="12" rx="6" fill="#D9E0E4"/>
  <rect x="628" y="416" width="268" height="210" rx="14" fill="#FFFFFF" stroke="#D9E0E4"/>
  <rect x="662" y="450" width="68" height="48" rx="10" fill="#2C5F9E"/>
  <rect x="762" y="450" width="68" height="48" rx="10" fill="#D9583F"/>
  <rect x="712" y="544" width="68" height="48" rx="10" fill="#0F766E"/>
  <path d="M730 474h32M796 498v46M746 544l-16-46" stroke="#17212B" stroke-width="8" stroke-linecap="round"/>
  <rect x="662" y="640" width="190" height="12" rx="6" fill="#D9E0E4"/>
</svg>
